<svg width="80" height="80" viewBox="0 0 80 80" fill="none" xmlns="http://www.w3.org/2000/svg">
<rect width="80" height="80" rx="28" fill="#202025"/>
<path d="M47.5002 39.9999C49.8002 39.9999 51.6502 38.1333 51.6502 35.8333C51.6502 33.5333 49.8002 31.6666 47.5002 31.6666C45.2002 31.6666 43.3335 33.5333 43.3335 35.8333C43.3335 38.1333 45.2002 39.9999 47.5002 39.9999ZM35.0002 38.3333C37.7668 38.3333 39.9835 36.0999 39.9835 33.3333C39.9835 30.5666 37.7668 28.3333 35.0002 28.3333C32.2335 28.3333 30.0002 30.5666 30.0002 33.3333C30.0002 36.0999 32.2335 38.3333 35.0002 38.3333ZM47.5002 43.3333C44.4502 43.3333 38.3335 44.8666 38.3335 47.9166V49.9999C38.3335 50.9166 39.0835 51.6666 40.0002 51.6666H55.0002C55.9168 51.6666 56.6668 50.9166 56.6668 49.9999V47.9166C56.6668 44.8666 50.5502 43.3333 47.5002 43.3333ZM35.0002 41.6666C31.1168 41.6666 23.3335 43.6166 23.3335 47.4999V49.9999C23.3335 50.9166 24.0835 51.6666 25.0002 51.6666H35.0002V47.9166C35.0002 46.4999 35.5502 44.0166 38.9502 42.1333C37.5002 41.8333 36.1002 41.6666 35.0002 41.6666Z" fill="#FFC234"/>
</svg>
