<svg width="40" height="40" viewBox="0 0 40 40" fill="none" xmlns="http://www.w3.org/2000/svg">
<g id="Property 1=seminar, MO=Default">
<path id="Ellipse 1855" d="M22.6663 13.3337C22.6663 17.0156 19.6816 20.0003 15.9997 20.0003C12.3178 20.0003 9.33301 17.0156 9.33301 13.3337C9.33301 9.65176 12.3178 6.66699 15.9997 6.66699C19.6816 6.66699 22.6663 9.65176 22.6663 13.3337Z" fill="#F6B4E5"/>
<g id="Vector">
<path d="M25.032 24.2248C22.631 22.9957 19.5153 21.9953 15.8994 21.9953C12.2836 21.9953 9.16789 22.9957 6.76683 24.2248C5.33763 24.9537 4.46582 26.4258 4.46582 28.0265V29.1413C4.46582 30.7134 4.41877 33.333 5.99089 33.333H25.808C27.3801 33.333 27.333 30.7134 27.333 29.1413V28.0265C27.333 26.4258 26.4612 24.9537 25.032 24.2248Z" fill="#F6B4E5"/>
<path d="M32.3119 5.25862C31.7831 4.5726 30.7684 4.51543 30.1681 5.12999C29.6679 5.63021 29.6107 6.43056 30.0395 6.98795C31.7116 9.13175 33.8126 14.4627 30.0395 19.2934C29.6107 19.8508 29.6679 20.6511 30.1681 21.1513C30.7827 21.7659 31.7831 21.6944 32.3119 21.0227C34.4557 18.2643 37.0997 11.4185 32.3119 5.25862Z" fill="#EC53AE"/>
<path d="M28.3101 9.53193C27.8385 8.71728 26.7237 8.57436 26.052 9.2318C25.5804 9.70343 25.5375 10.4323 25.8662 11.0183C26.2235 11.6471 26.9238 13.4336 25.8519 15.2916C25.5232 15.8633 25.5804 16.5779 26.052 17.0352C26.7237 17.707 27.8385 17.5355 28.3101 16.7208C29.968 13.8767 29.1391 10.9754 28.3101 9.53193Z" fill="#EC53AE"/>
</g>
</g>
</svg>
