<svg width="41" height="40" viewBox="0 0 41 40" fill="none" xmlns="http://www.w3.org/2000/svg">
<g id="icon_assets/PC" clip-path="url(#clip0_6108_11818)">
<path id="Polygon 2" d="M9.50944 35.1933C8.29568 35.6125 7.10746 34.5031 7.44253 33.2634L12.0317 16.2853C12.8183 13.3751 16.4194 12.348 18.6229 14.4054L27.5572 22.7472C29.7608 24.8046 28.9828 28.4676 26.1332 29.4517L9.50944 35.1933Z" fill="#FFCD52"/>
<path id="Vector 160 (Stroke)" fill-rule="evenodd" clip-rule="evenodd" d="M28.0776 3.2305C28.8073 3.32901 29.3191 4.00045 29.2206 4.73021C28.9451 6.77139 27.6363 11.6455 24.451 15.0346C23.9467 15.5712 23.1029 15.5973 22.5663 15.093C22.0297 14.5887 22.0036 13.7448 22.5079 13.2083C25.1667 10.3794 26.342 6.12121 26.5779 4.37349C26.6764 3.64373 27.3478 3.132 28.0776 3.2305Z" fill="#E58316"/>
<path id="Vector 161 (Stroke)" fill-rule="evenodd" clip-rule="evenodd" d="M36.5319 13.8886C37.2563 13.7559 37.951 14.2355 38.0837 14.9598C38.2301 15.7584 37.967 16.504 37.6115 17.0556C37.2484 17.6192 36.7151 18.1043 36.0929 18.4218C35.4659 18.7418 34.6906 18.919 33.874 18.7618C33.0374 18.6008 32.2903 18.1139 31.7083 17.34C31.6465 17.2579 31.3725 17.0498 30.7106 17.3332C30.4216 17.457 30.1694 17.6436 30.0006 17.8424C29.8314 18.0418 29.7915 18.1953 29.7892 18.2782C29.769 19.0143 29.1559 19.5947 28.4198 19.5745C27.6837 19.5543 27.1033 18.9412 27.1235 18.2051C27.1686 16.5631 28.4834 15.386 29.6609 14.8819C30.8463 14.3743 32.706 14.2302 33.8394 15.7371C34.0747 16.05 34.2696 16.1224 34.378 16.1432C34.5064 16.1679 34.6788 16.1496 34.8807 16.0466C35.0873 15.9411 35.2639 15.7757 35.3699 15.6113C35.4425 15.4986 35.4545 15.4334 35.4569 15.4181C35.3379 14.7019 35.815 14.0199 36.5319 13.8886Z" fill="#E58316"/>
<path id="Ellipse 1862" d="M34.0046 11.0529C33.8937 11.7809 33.2136 12.2811 32.4856 12.1701C31.7576 12.0592 31.2575 11.3791 31.3684 10.6511C31.4794 9.92315 32.1595 9.42296 32.8874 9.53392C33.6154 9.64488 34.1156 10.325 34.0046 11.0529Z" fill="#FFCD52"/>
<path id="Vector 162" d="M19.7138 9.97212L20.619 6.69551" stroke="#FFCD52" stroke-width="2.66667" stroke-linecap="round"/>
</g>
<defs>
<clipPath id="clip0_6108_11818">
<rect width="40" height="40" fill="white" transform="translate(0.5)"/>
</clipPath>
</defs>
</svg>
