<svg width="41" height="40" viewBox="0 0 41 40" fill="none" xmlns="http://www.w3.org/2000/svg">
<g id="icon_assets/PC">
<path id="Ellipse 1855" d="M23.1663 13.3337C23.1663 17.0156 20.1816 20.0003 16.4997 20.0003C12.8178 20.0003 9.83301 17.0156 9.83301 13.3337C9.83301 9.65176 12.8178 6.66699 16.4997 6.66699C20.1816 6.66699 23.1663 9.65176 23.1663 13.3337Z" fill="#88DBFF"/>
<g id="Vector">
<path d="M25.532 24.2248C23.131 22.9957 20.0153 21.9953 16.3994 21.9953C12.7836 21.9953 9.66789 22.9957 7.26683 24.2248C5.83763 24.9537 4.96582 26.4258 4.96582 28.0265V29.1413C4.96582 30.7134 4.91877 33.333 6.49089 33.333H26.308C27.8801 33.333 27.833 30.7134 27.833 29.1413V28.0265C27.833 26.4258 26.9612 24.9537 25.532 24.2248Z" fill="#88DBFF"/>
<path d="M32.8119 5.25862C32.2831 4.5726 31.2684 4.51543 30.6681 5.12999C30.1679 5.63021 30.1107 6.43056 30.5395 6.98795C32.2116 9.13175 34.3126 14.4627 30.5395 19.2934C30.1107 19.8508 30.1679 20.6511 30.6681 21.1513C31.2827 21.7659 32.2831 21.6944 32.8119 21.0227C34.9557 18.2643 37.5997 11.4185 32.8119 5.25862Z" fill="#2786F0"/>
<path d="M28.8101 9.53193C28.3385 8.71728 27.2237 8.57436 26.552 9.2318C26.0804 9.70343 26.0375 10.4323 26.3662 11.0183C26.7235 11.6471 27.4238 13.4336 26.3519 15.2916C26.0232 15.8633 26.0804 16.5779 26.552 17.0352C27.2237 17.707 28.3385 17.5355 28.8101 16.7208C30.468 13.8767 29.6391 10.9754 28.8101 9.53193Z" fill="#2786F0"/>
</g>
</g>
</svg>
