<svg width="80" height="80" viewBox="0 0 80 80" fill="none" xmlns="http://www.w3.org/2000/svg">
<rect width="80" height="80" rx="28" fill="#202025"/>
<path d="M36.4336 42.5282C39.5909 42.5282 42.1504 39.9687 42.1504 36.8114C42.1504 33.6541 39.5909 31.0946 36.4336 31.0946C33.2763 31.0946 30.7168 33.6541 30.7168 36.8114C30.7168 39.9687 33.2763 42.5282 36.4336 42.5282Z" fill="#346FFA"/>
<path d="M45.5662 46.187C43.1651 44.9578 40.0495 43.9574 36.4336 43.9574C32.8177 43.9574 29.7021 44.9578 27.301 46.187C25.8718 46.9158 25 48.3879 25 49.9886V51.1034C25 52.6755 26.2863 53.9618 27.8584 53.9618H45.0088C46.5809 53.9618 47.8672 52.6755 47.8672 51.1034V49.9886C47.8672 48.3879 46.9954 46.9158 45.5662 46.187Z" fill="#346FFA"/>
<path d="M52.312 26.5926C51.7832 25.9066 50.7685 25.8494 50.1682 26.464C49.668 26.9642 49.6108 27.7645 50.0396 28.3219C51.7118 30.4657 53.8127 35.7967 50.0396 40.6274C49.6108 41.1847 49.668 41.9851 50.1682 42.4853C50.7828 43.0999 51.7832 43.0284 52.312 42.3567C54.4558 39.5983 57.0999 32.7525 52.312 26.5926Z" fill="#346FFA"/>
<path d="M48.3103 30.8659C47.8386 30.0513 46.7239 29.9083 46.0521 30.5658C45.5805 31.0374 45.5376 31.7663 45.8663 32.3523C46.2236 32.9811 46.9239 34.7676 45.852 36.6256C45.5233 37.1973 45.5805 37.9119 46.0521 38.3692C46.7239 39.0409 47.8386 38.8694 48.3103 38.0548C49.9681 35.2107 49.1392 32.3094 48.3103 30.8659Z" fill="#346FFA"/>
</svg>
