<svg width="41" height="40" viewBox="0 0 41 40" fill="none" xmlns="http://www.w3.org/2000/svg">
<g id="icon_assets/PC">
<path id="Vector" d="M11.3415 6.12988C14.5915 6.12988 18.0915 6.79655 20.5081 8.62988V33.8716C19.9762 33.8719 19.4421 33.7469 18.9415 33.4966C16.7081 32.3966 13.9415 31.9632 11.3415 31.9632C9.6748 31.9632 7.94147 32.1466 6.30814 32.5632C4.20814 33.0966 2.1748 31.4966 2.1748 29.3299V10.5299C2.1748 9.17988 2.99147 7.99655 4.20814 7.44655C6.35814 6.49655 8.9248 6.12988 11.3415 6.12988Z" fill="#EB553D"/>
<path id="Vector_2" d="M29.6663 6.12988C26.4163 6.12988 22.9163 6.79655 20.4997 8.62988V33.8716C21.0316 33.8719 21.5657 33.7469 22.0663 33.4966C24.2997 32.3966 27.0663 31.9632 29.6663 31.9632C31.333 31.9632 33.0663 32.1466 34.6997 32.5632C36.7997 33.0966 38.833 31.4966 38.833 29.3299V10.5299C38.833 9.17988 38.0163 7.99655 36.7997 7.44655C34.6497 6.49655 32.083 6.12988 29.6663 6.12988Z" fill="#F9B9A8"/>
<g id="Vector_3">
<path d="M25.7458 16.6665C25.2124 16.6665 24.7291 16.3332 24.5624 15.7998C24.3458 15.1498 24.7124 14.4332 25.3624 14.2332C27.9291 13.3998 31.2458 13.1332 34.2958 13.4832C34.9791 13.5665 35.4791 14.1832 35.3958 14.8665C35.3124 15.5498 34.6958 16.0498 34.0124 15.9665C31.3124 15.6498 28.3624 15.8998 26.1291 16.6165C25.9958 16.6332 25.8624 16.6665 25.7458 16.6665Z" fill="#EB553D"/>
<path d="M25.7458 21.0998C25.2124 21.0998 24.7291 20.7665 24.5624 20.2332C24.3458 19.5832 24.7124 18.8665 25.3624 18.6665C27.9124 17.8332 31.2458 17.5665 34.2958 17.9165C34.9791 17.9998 35.4791 18.6165 35.3958 19.2998C35.3124 19.9832 34.6958 20.4832 34.0124 20.3998C31.3124 20.0832 28.3624 20.3332 26.1291 21.0498C25.9958 21.0832 25.8624 21.0998 25.7458 21.0998Z" fill="#EB553D"/>
<path d="M25.7458 25.5332C25.2124 25.5332 24.7291 25.1998 24.5624 24.6665C24.3458 24.0165 24.7124 23.2998 25.3624 23.0998C27.9124 22.2665 31.2458 21.9998 34.2958 22.3498C34.9791 22.4332 35.4791 23.0498 35.3958 23.7332C35.3124 24.4165 34.6958 24.8998 34.0124 24.8332C31.3124 24.5165 28.3624 24.7665 26.1291 25.4832C25.9958 25.5165 25.8624 25.5332 25.7458 25.5332Z" fill="#EB553D"/>
</g>
</g>
</svg>
