<svg width="40" height="40" viewBox="0 0 40 40" fill="none" xmlns="http://www.w3.org/2000/svg">
<g id="Property 1=event, MO=Default" clip-path="url(#clip0_6095_13100)">
<path id="Polygon 2" d="M9.00944 35.1933C7.79568 35.6125 6.60746 34.5031 6.94253 33.2634L11.5317 16.2853C12.3183 13.3751 15.9194 12.348 18.1229 14.4054L27.0572 22.7472C29.2608 24.8046 28.4828 28.4676 25.6332 29.4517L9.00944 35.1933Z" fill="#EEDC66"/>
<path id="Vector 160 (Stroke)" fill-rule="evenodd" clip-rule="evenodd" d="M27.5776 3.2305C28.3073 3.32901 28.8191 4.00045 28.7206 4.73021C28.4451 6.77139 27.1363 11.6455 23.951 15.0346C23.4467 15.5712 22.6029 15.5973 22.0663 15.093C21.5297 14.5887 21.5036 13.7448 22.0079 13.2083C24.6667 10.3794 25.842 6.12121 26.0779 4.37349C26.1764 3.64373 26.8478 3.132 27.5776 3.2305Z" fill="#E58316"/>
<path id="Vector 161 (Stroke)" fill-rule="evenodd" clip-rule="evenodd" d="M36.0319 13.8886C36.7563 13.7559 37.451 14.2355 37.5837 14.9598C37.7301 15.7584 37.467 16.504 37.1115 17.0556C36.7484 17.6192 36.2151 18.1043 35.5929 18.4218C34.9659 18.7418 34.1906 18.919 33.374 18.7618C32.5374 18.6008 31.7903 18.1139 31.2083 17.34C31.1465 17.2579 30.8725 17.0498 30.2106 17.3332C29.9216 17.457 29.6694 17.6436 29.5006 17.8424C29.3314 18.0418 29.2915 18.1953 29.2892 18.2782C29.269 19.0143 28.6559 19.5947 27.9198 19.5745C27.1837 19.5543 26.6033 18.9412 26.6235 18.2051C26.6686 16.5631 27.9834 15.386 29.1609 14.8819C30.3463 14.3743 32.206 14.2302 33.3394 15.7371C33.5747 16.05 33.7696 16.1224 33.878 16.1432C34.0064 16.1679 34.1788 16.1496 34.3807 16.0466C34.5873 15.9411 34.7639 15.7757 34.8699 15.6113C34.9425 15.4986 34.9545 15.4334 34.9569 15.4181C34.8379 14.7019 35.315 14.0199 36.0319 13.8886Z" fill="#E58316"/>
<path id="Ellipse 1862" d="M33.5046 11.0529C33.3937 11.7809 32.7136 12.2811 31.9856 12.1701C31.2576 12.0592 30.7575 11.3791 30.8684 10.6511C30.9794 9.92315 31.6595 9.42296 32.3874 9.53392C33.1154 9.64488 33.6156 10.325 33.5046 11.0529Z" fill="#EEDC66"/>
<path id="Vector 162" d="M19.2138 9.97212L20.119 6.69551" stroke="#EEDC66" stroke-width="2.66667" stroke-linecap="round"/>
</g>
<defs>
<clipPath id="clip0_6095_13100">
<rect width="40" height="40" fill="white"/>
</clipPath>
</defs>
</svg>
