<svg width="40" height="40" viewBox="0 0 40 40" fill="none" xmlns="http://www.w3.org/2000/svg">
<g id="Property 1=study, MO=Default">
<path id="Vector" d="M10.8415 6.12988C14.0915 6.12988 17.5915 6.79655 20.0081 8.62988V33.8716C19.4762 33.8719 18.9421 33.7469 18.4415 33.4966C16.2081 32.3966 13.4415 31.9632 10.8415 31.9632C9.1748 31.9632 7.44147 32.1466 5.80814 32.5632C3.70814 33.0966 1.6748 31.4966 1.6748 29.3299V10.5299C1.6748 9.17988 2.49147 7.99655 3.70814 7.44655C5.85814 6.49655 8.4248 6.12988 10.8415 6.12988Z" fill="#2786F0"/>
<path id="Vector_2" d="M29.1663 6.12988C25.9163 6.12988 22.4163 6.79655 19.9997 8.62988V33.8716C20.5316 33.8719 21.0657 33.7469 21.5663 33.4966C23.7997 32.3966 26.5663 31.9632 29.1663 31.9632C30.833 31.9632 32.5663 32.1466 34.1997 32.5632C36.2997 33.0966 38.333 31.4966 38.333 29.3299V10.5299C38.333 9.17988 37.5163 7.99655 36.2997 7.44655C34.1497 6.49655 31.583 6.12988 29.1663 6.12988Z" fill="#9DE1FF"/>
<g id="Vector_3">
<path d="M25.2458 16.6665C24.7124 16.6665 24.2291 16.3332 24.0624 15.7998C23.8458 15.1498 24.2124 14.4332 24.8624 14.2332C27.4291 13.3998 30.7458 13.1332 33.7958 13.4832C34.4791 13.5665 34.9791 14.1832 34.8958 14.8665C34.8124 15.5498 34.1958 16.0498 33.5124 15.9665C30.8124 15.6498 27.8624 15.8998 25.6291 16.6165C25.4958 16.6332 25.3624 16.6665 25.2458 16.6665Z" fill="#2786F0"/>
<path d="M25.2458 21.0998C24.7124 21.0998 24.2291 20.7665 24.0624 20.2332C23.8458 19.5832 24.2124 18.8665 24.8624 18.6665C27.4124 17.8332 30.7458 17.5665 33.7958 17.9165C34.4791 17.9998 34.9791 18.6165 34.8958 19.2998C34.8124 19.9832 34.1958 20.4832 33.5124 20.3998C30.8124 20.0832 27.8624 20.3332 25.6291 21.0498C25.4958 21.0832 25.3624 21.0998 25.2458 21.0998Z" fill="#2786F0"/>
<path d="M25.2458 25.5332C24.7124 25.5332 24.2291 25.1998 24.0624 24.6665C23.8458 24.0165 24.2124 23.2998 24.8624 23.0998C27.4124 22.2665 30.7458 21.9998 33.7958 22.3498C34.4791 22.4332 34.9791 23.0498 34.8958 23.7332C34.8124 24.4165 34.1958 24.8998 33.5124 24.8332C30.8124 24.5165 27.8624 24.7665 25.6291 25.4832C25.4958 25.5165 25.3624 25.5332 25.2458 25.5332Z" fill="#2786F0"/>
</g>
</g>
</svg>
