<svg width="36" height="36" viewBox="0 0 36 36" fill="none" xmlns="http://www.w3.org/2000/svg">
<mask id="path-1-inside-1_933_13898" fill="white">
<path fill-rule="evenodd" clip-rule="evenodd" d="M13.412 6.75C12.885 6.75 12.4075 7.06031 12.1935 7.54182L11.2121 9.75H5.66667C4.19391 9.75 3 10.9439 3 12.4167V26.5833C3 28.0561 4.19391 29.25 5.66667 29.25H30.3333C31.8061 29.25 33 28.0561 33 26.5833V12.4167C33 10.9439 31.8061 9.75 30.3333 9.75H24.7879L23.8065 7.54182C23.5925 7.06031 23.115 6.75 22.5881 6.75H13.412Z"/>
</mask>
<path d="M12.1935 7.54182L13.5643 8.15102V8.15102L12.1935 7.54182ZM11.2121 9.75V11.25C11.8049 11.25 12.3421 10.9009 12.5828 10.3592L11.2121 9.75ZM24.7879 9.75L23.4172 10.3592C23.6579 10.9009 24.1951 11.25 24.7879 11.25V9.75ZM23.8065 7.54182L22.4357 8.15102V8.15102L23.8065 7.54182ZM13.5643 8.15102C13.5375 8.21121 13.4778 8.25 13.412 8.25V5.25C12.2923 5.25 11.2776 5.90941 10.8228 6.93261L13.5643 8.15102ZM12.5828 10.3592L13.5643 8.15102L10.8228 6.93261L9.84141 9.1408L12.5828 10.3592ZM5.66667 11.25H11.2121V8.25H5.66667V11.25ZM4.5 12.4167C4.5 11.7723 5.02233 11.25 5.66667 11.25V8.25C3.36548 8.25 1.5 10.1155 1.5 12.4167H4.5ZM4.5 26.5833V12.4167H1.5V26.5833H4.5ZM5.66667 27.75C5.02234 27.75 4.5 27.2277 4.5 26.5833H1.5C1.5 28.8845 3.36548 30.75 5.66667 30.75V27.75ZM30.3333 27.75H5.66667V30.75H30.3333V27.75ZM31.5 26.5833C31.5 27.2277 30.9777 27.75 30.3333 27.75V30.75C32.6345 30.75 34.5 28.8845 34.5 26.5833H31.5ZM31.5 12.4167V26.5833H34.5V12.4167H31.5ZM30.3333 11.25C30.9777 11.25 31.5 11.7723 31.5 12.4167H34.5C34.5 10.1155 32.6345 8.25 30.3333 8.25V11.25ZM24.7879 11.25H30.3333V8.25H24.7879V11.25ZM22.4357 8.15102L23.4172 10.3592L26.1586 9.1408L25.1772 6.93261L22.4357 8.15102ZM22.5881 8.25C22.5222 8.25 22.4625 8.21121 22.4357 8.15102L25.1772 6.93261C24.7224 5.90941 23.7078 5.25 22.5881 5.25V8.25ZM13.412 8.25H22.5881V5.25H13.412V8.25Z" fill="#FCFCFC" mask="url(#path-1-inside-1_933_13898)"/>
<ellipse cx="18" cy="19.5" rx="6" ry="6" stroke="#FCFCFC" stroke-width="1.5"/>
<circle cx="1.125" cy="1.125" r="1.125" transform="matrix(1 0 0 -1 25.5 15.75)" fill="#FCFCFC"/>
</svg>
