<svg width="20" height="20" viewBox="0 0 20 20" fill="none" xmlns="http://www.w3.org/2000/svg">
<g clip-path="url(#clip0_1476_3120)">
<path d="M10.0007 19.1668C15.0633 19.1668 19.1673 15.0628 19.1673 10.0002C19.1673 4.93755 15.0633 0.833496 10.0007 0.833496C4.93804 0.833496 0.833984 4.93755 0.833984 10.0002C0.833984 15.0628 4.93804 19.1668 10.0007 19.1668Z" fill="#472F2F"/>
<path d="M9.4434 14.8535C9.28318 14.76 9.14967 14.6332 9.05621 14.4729C8.96275 14.3127 8.91602 14.1392 8.91602 13.9522C8.91602 13.7653 8.95607 13.5851 9.05621 13.4249C9.15634 13.2646 9.2765 13.1378 9.4434 13.0443C9.61029 12.9509 9.78386 12.9041 9.97078 12.9041C10.1577 12.9041 10.3313 12.9509 10.4915 13.0443C10.6517 13.1378 10.7852 13.2646 10.8787 13.4249C10.9721 13.5851 11.0189 13.7586 11.0255 13.9522C11.0255 14.1392 10.9721 14.3127 10.8787 14.4729C10.7852 14.6332 10.6584 14.76 10.4915 14.8535C10.3313 14.9469 10.1577 15.0003 9.97078 15.0003C9.78386 15.0003 9.60361 14.9536 9.4434 14.8535ZM10.378 12.1231H9.52351C9.32991 12.1231 9.16969 11.9495 9.16969 11.7292L9.02283 5.58089C9.02283 5.35391 9.17637 5.16699 9.37664 5.16699H10.5182C10.7185 5.16699 10.8787 5.35391 10.872 5.58089L10.7251 11.7292C10.7251 11.9495 10.5649 12.1231 10.3713 12.1231H10.378Z" fill="#FF666F"/>
</g>
<defs>
<clipPath id="clip0_1476_3120">
<rect width="20" height="20" fill="white"/>
</clipPath>
</defs>
</svg>
