<svg width="24" height="24" viewBox="0 0 24 24" fill="none" xmlns="http://www.w3.org/2000/svg">
<mask id="path-1-inside-1_387_11476" fill="white">
<path fill-rule="evenodd" clip-rule="evenodd" d="M4.22337 5.00391C3.26942 5.00391 2.49609 5.77723 2.49609 6.73118V15.3675C2.49609 16.3215 3.26942 17.0948 4.22337 17.0948H14.7807C15.2232 17.0948 15.6265 17.3484 15.8183 17.7471L16.5416 19.2503C16.6253 19.4242 16.873 19.4242 16.9566 19.2503L17.6799 17.7471C17.8717 17.3484 18.2751 17.0948 18.7175 17.0948H19.7688C20.7228 17.0948 21.4961 16.3215 21.4961 15.3675V6.73118C21.4961 5.77723 20.7228 5.00391 19.7688 5.00391H4.22337Z"/>
</mask>
<path d="M16.5416 19.2503L15.7633 19.6247L15.7633 19.6247L16.5416 19.2503ZM16.9566 19.2503L16.1784 18.8759L16.9566 19.2503ZM17.6799 17.7471L16.9016 17.3727L17.6799 17.7471ZM15.8183 17.7471L16.5966 17.3727L15.8183 17.7471ZM3.35973 6.73118C3.35973 6.25421 3.74639 5.86754 4.22337 5.86754V4.14027C2.79245 4.14027 1.63246 5.30026 1.63246 6.73118H3.35973ZM3.35973 15.3675V6.73118H1.63246V15.3675H3.35973ZM4.22337 16.2312C3.74639 16.2312 3.35973 15.8445 3.35973 15.3675H1.63246C1.63246 16.7985 2.79245 17.9585 4.22337 17.9585V16.2312ZM14.7807 16.2312H4.22337V17.9585H14.7807V16.2312ZM17.3198 18.8759L16.5966 17.3727L15.0401 18.1215L15.7633 19.6247L17.3198 18.8759ZM16.1784 18.8759C16.4085 18.3975 17.0897 18.3975 17.3198 18.8759L15.7633 19.6247C16.1608 20.4509 17.3374 20.4509 17.7349 19.6247L16.1784 18.8759ZM16.9016 17.3727L16.1784 18.8759L17.7349 19.6247L18.4581 18.1215L16.9016 17.3727ZM19.7688 16.2312H18.7175V17.9585H19.7688V16.2312ZM20.6325 15.3675C20.6325 15.8445 20.2458 16.2312 19.7688 16.2312V17.9585C21.1997 17.9585 22.3597 16.7985 22.3597 15.3675H20.6325ZM20.6325 6.73118V15.3675H22.3597V6.73118H20.6325ZM19.7688 5.86754C20.2458 5.86754 20.6325 6.25421 20.6325 6.73118H22.3597C22.3597 5.30026 21.1997 4.14027 19.7688 4.14027V5.86754ZM4.22337 5.86754H19.7688V4.14027H4.22337V5.86754ZM18.4581 18.1215C18.5061 18.0218 18.6069 17.9585 18.7175 17.9585V16.2312C17.9432 16.2312 17.2373 16.6749 16.9016 17.3727L18.4581 18.1215ZM14.7807 17.9585C14.8913 17.9585 14.9921 18.0218 15.0401 18.1215L16.5966 17.3727C16.2609 16.6749 15.555 16.2312 14.7807 16.2312V17.9585Z" fill="#989BA0" mask="url(#path-1-inside-1_387_11476)"/>
<circle cx="8.11754" cy="11.0472" r="0.863636" fill="#989BA0"/>
<circle cx="12.0023" cy="11.0472" r="0.863636" fill="#989BA0"/>
<circle cx="15.8929" cy="11.0472" r="0.863636" fill="#989BA0"/>
</svg>
