<svg width="24" height="24" viewBox="0 0 24 24" fill="none" xmlns="http://www.w3.org/2000/svg">
<mask id="path-1-inside-1_1926_9361" fill="white">
<path fill-rule="evenodd" clip-rule="evenodd" d="M4.72727 5C3.77333 5 3 5.77333 3 6.72727V15.3636C3 16.3176 3.77333 17.0909 4.72727 17.0909H15.2846C15.7271 17.0909 16.1304 17.3444 16.3223 17.7432L17.0455 19.2464C17.1292 19.4203 17.3769 19.4203 17.4606 19.2464L18.1838 17.7432C18.3756 17.3444 18.779 17.0909 19.2214 17.0909H20.2727C21.2267 17.0909 22 16.3176 22 15.3636V6.72727C22 5.77333 21.2267 5 20.2727 5H4.72727Z"/>
</mask>
<path d="M17.0455 19.2464L15.874 19.81L15.874 19.81L17.0455 19.2464ZM17.4606 19.2464L16.2891 18.6828L17.4606 19.2464ZM18.1838 17.7432L17.0123 17.1796L18.1838 17.7432ZM16.3223 17.7432L17.4937 17.1796L16.3223 17.7432ZM4.3 6.72727C4.3 6.4913 4.4913 6.3 4.72727 6.3V3.7C3.05536 3.7 1.7 5.05536 1.7 6.72727H4.3ZM4.3 15.3636V6.72727H1.7V15.3636H4.3ZM4.72727 15.7909C4.4913 15.7909 4.3 15.5996 4.3 15.3636H1.7C1.7 17.0356 3.05535 18.3909 4.72727 18.3909V15.7909ZM15.2846 15.7909H4.72727V18.3909H15.2846V15.7909ZM18.217 18.6828L17.4937 17.1796L15.1508 18.3068L15.874 19.81L18.217 18.6828ZM16.2891 18.6828C16.6778 17.8749 17.8282 17.8749 18.2169 18.6828L15.874 19.81C16.4301 20.9658 18.0759 20.9658 18.632 19.81L16.2891 18.6828ZM17.0123 17.1796L16.2891 18.6828L18.632 19.81L19.3552 18.3068L17.0123 17.1796ZM20.2727 15.7909H19.2214V18.3909H20.2727V15.7909ZM20.7 15.3636C20.7 15.5996 20.5087 15.7909 20.2727 15.7909V18.3909C21.9446 18.3909 23.3 17.0356 23.3 15.3636H20.7ZM20.7 6.72727V15.3636H23.3V6.72727H20.7ZM20.2727 6.3C20.5087 6.3 20.7 6.4913 20.7 6.72727H23.3C23.3 5.05536 21.9446 3.7 20.2727 3.7V6.3ZM4.72727 6.3H20.2727V3.7H4.72727V6.3ZM19.3552 18.3068C19.3305 18.3582 19.2785 18.3909 19.2214 18.3909V15.7909C18.2794 15.7909 17.4207 16.3307 17.0123 17.1796L19.3552 18.3068ZM15.2846 18.3909C15.2275 18.3909 15.1755 18.3582 15.1508 18.3068L17.4937 17.1796C17.0853 16.3307 16.2266 15.7909 15.2846 15.7909V18.3909Z" fill="#989BA0" mask="url(#path-1-inside-1_1926_9361)"/>
<circle cx="8.60938" cy="11.1797" r="1" fill="#989BA0"/>
<circle cx="12.4941" cy="11.1797" r="1" fill="#989BA0"/>
<circle cx="16.3848" cy="11.1797" r="1" fill="#989BA0"/>
</svg>
