<svg width="20" height="20" viewBox="0 0 20 20" fill="none" xmlns="http://www.w3.org/2000/svg">
<path d="M10 13.575C9.86667 13.575 9.74167 13.5543 9.625 13.513C9.50834 13.4717 9.4 13.4007 9.3 13.3L5.7 9.7C5.51667 9.51667 5.425 9.28334 5.425 9C5.425 8.71667 5.51667 8.48334 5.7 8.3C5.88333 8.11667 6.121 8.021 6.413 8.013C6.705 8.005 6.94234 8.09234 7.125 8.275L9 10.15V3C9 2.71667 9.096 2.479 9.288 2.287C9.48 2.095 9.71734 1.99934 10 2C10.2833 2 10.521 2.096 10.713 2.288C10.905 2.48 11.0007 2.71734 11 3V10.15L12.875 8.275C13.0583 8.09167 13.296 8.004 13.588 8.012C13.88 8.02 14.1173 8.116 14.3 8.3C14.4833 8.48334 14.575 8.71667 14.575 9C14.575 9.28334 14.4833 9.51667 14.3 9.7L10.7 13.3C10.6 13.4 10.4917 13.471 10.375 13.513C10.2583 13.555 10.1333 13.5757 10 13.575ZM4 18C3.45 18 2.979 17.804 2.587 17.412C2.195 17.02 1.99934 16.5493 2 16V14C2 13.7167 2.096 13.479 2.288 13.287C2.48 13.095 2.71733 12.9993 3 13C3.28333 13 3.521 13.096 3.713 13.288C3.905 13.48 4.00067 13.7173 4 14V16H16V14C16 13.7167 16.096 13.479 16.288 13.287C16.48 13.095 16.7173 12.9993 17 13C17.2833 13 17.521 13.096 17.713 13.288C17.905 13.48 18.0007 13.7173 18 14V16C18 16.55 17.804 17.021 17.412 17.413C17.02 17.805 16.5493 18.0007 16 18H4Z" fill="#FCFCFC"/>
</svg>
