<svg width="24" height="24" viewBox="0 0 24 24" fill="none" xmlns="http://www.w3.org/2000/svg">
<path fill-rule="evenodd" clip-rule="evenodd" d="M5.5 7.25C5.91421 7.25 6.25 7.58579 6.25 8V21C6.25 21.4142 5.91421 21.75 5.5 21.75C5.08579 21.75 4.75 21.4142 4.75 21V8C4.75 7.58579 5.08579 7.25 5.5 7.25Z" fill="#FCFCFC"/>
<path fill-rule="evenodd" clip-rule="evenodd" d="M12 13.75C12.4142 13.75 12.75 14.0858 12.75 14.5V21C12.75 21.4142 12.4142 21.75 12 21.75C11.5858 21.75 11.25 21.4142 11.25 21V14.5C11.25 14.0858 11.5858 13.75 12 13.75Z" fill="#FCFCFC"/>
<path fill-rule="evenodd" clip-rule="evenodd" d="M12 2.25C12.4142 2.25 12.75 2.58579 12.75 3V9.5C12.75 9.91421 12.4142 10.25 12 10.25C11.5858 10.25 11.25 9.91421 11.25 9.5V3C11.25 2.58579 11.5858 2.25 12 2.25Z" fill="#FCFCFC"/>
<path fill-rule="evenodd" clip-rule="evenodd" d="M18.5 2.25C18.9142 2.25 19.25 2.58579 19.25 3V16C19.25 16.4142 18.9142 16.75 18.5 16.75C18.0858 16.75 17.75 16.4142 17.75 16V3C17.75 2.58579 18.0858 2.25 18.5 2.25Z" fill="#FCFCFC"/>
<path fill-rule="evenodd" clip-rule="evenodd" d="M2.25 5.5C2.25 3.70508 3.70508 2.25 5.5 2.25C7.29491 2.25 8.75 3.70507 8.75 5.5C8.75 7.29491 7.29491 8.75 5.5 8.75C3.70507 8.75 2.25 7.29491 2.25 5.5ZM5.5 3.75C4.5335 3.75 3.75 4.5335 3.75 5.5C3.75 6.46649 4.53351 7.25 5.5 7.25C6.46649 7.25 7.25 6.46649 7.25 5.5C7.25 4.53351 6.46649 3.75 5.5 3.75Z" fill="#FCFCFC"/>
<path fill-rule="evenodd" clip-rule="evenodd" d="M8.75 12C8.75 10.2051 10.2051 8.75 12 8.75C13.7949 8.75 15.25 10.2051 15.25 12C15.25 13.7949 13.7949 15.25 12 15.25C10.2051 15.25 8.75 13.7949 8.75 12ZM12 10.25C11.0335 10.25 10.25 11.0335 10.25 12C10.25 12.9665 11.0335 13.75 12 13.75C12.9665 13.75 13.75 12.9665 13.75 12C13.75 11.0335 12.9665 10.25 12 10.25Z" fill="#FCFCFC"/>
<path fill-rule="evenodd" clip-rule="evenodd" d="M15.25 18.5C15.25 16.7051 16.7051 15.25 18.5 15.25C20.2949 15.25 21.75 16.7051 21.75 18.5C21.75 20.2949 20.2949 21.75 18.5 21.75C16.7051 21.75 15.25 20.2949 15.25 18.5ZM18.5 16.75C17.5335 16.75 16.75 17.5335 16.75 18.5C16.75 19.4665 17.5335 20.25 18.5 20.25C19.4665 20.25 20.25 19.4665 20.25 18.5C20.25 17.5335 19.4665 16.75 18.5 16.75Z" fill="#FCFCFC"/>
</svg>
