<svg width="22" height="22" viewBox="0 0 22 22" fill="none" xmlns="http://www.w3.org/2000/svg">
<path d="M15.8264 9.65031C15.8264 9.65031 15.2649 7.68417 15.6536 6.50449C15.6536 6.50449 15.8264 6.06757 15.5672 5.84911C15.5672 5.84911 15.4376 5.67434 15.1353 5.71803C15.1353 5.71803 14.4875 5.71803 13.6237 6.32972C13.6237 6.32972 13.235 6.54818 13.0622 5.98018C13.0622 5.98018 12.4144 3.97035 12.3712 3.09651C12.3712 3.09651 12.3928 2.81251 12.1552 2.65959C12.0174 2.5709 11.7449 2.59405 11.5074 2.74698C11.5074 2.74698 8.05609 4.60432 7.68725 8.7638C7.65615 9.11552 7.64665 9.48384 7.66349 9.86877C7.66349 9.86877 7.68509 10.3275 7.53392 10.4368C7.41817 10.5202 7.33957 10.5023 6.97246 10.3494L6.34059 10.0802L6.15185 9.99985C6.15185 9.99985 5.82793 9.80323 5.59038 9.95615C5.48414 10.0248 5.39603 10.1528 5.33125 10.3931C5.33125 10.3931 4.46918 12.9495 5.52646 15.4941C6.31511 17.7652 8.453 19.3936 10.9675 19.3936C14.1519 19.3936 16.7333 16.7822 16.7333 13.5607C16.7333 13.5607 16.9493 12.6214 15.8264 9.65031Z" fill="#FA616D"/>
<path d="M14.2317 15.3572C14.2317 17.1234 12.9166 18.555 11.2942 18.555C9.67179 18.555 8.35669 17.1234 8.35669 15.3572C8.35669 13.591 9.97005 11.0015 11.2942 11.0015C12.6183 11.0015 14.2317 13.591 14.2317 15.3572Z" fill="#FFA480"/>
</svg>
