<svg width="22" height="22" viewBox="0 0 22 22" fill="none" xmlns="http://www.w3.org/2000/svg">
<path d="M10.9999 20.1667C9.38047 20.1667 8.05895 19.9108 7.03534 19.399C6.01172 18.8872 5.49992 18.2264 5.49992 17.4167C5.49992 17.05 5.61068 16.7101 5.83221 16.3969C6.05374 16.0837 6.36311 15.8125 6.76034 15.5834L8.20409 16.9355C8.06659 16.9966 7.91763 17.0653 7.75721 17.1417C7.59679 17.2181 7.47075 17.3098 7.37909 17.4167C7.5777 17.6612 8.03603 17.875 8.75409 18.0584C9.47214 18.2417 10.2208 18.3334 10.9999 18.3334C11.7791 18.3334 12.5315 18.2417 13.2572 18.0584C13.9829 17.875 14.4451 17.6612 14.6437 17.4167C14.5367 17.2945 14.3992 17.1952 14.2312 17.1188C14.0631 17.0424 13.9027 16.9737 13.7499 16.9125L15.1708 15.5375C15.5985 15.782 15.927 16.0608 16.1562 16.374C16.3853 16.6872 16.4999 17.0348 16.4999 17.4167C16.4999 18.2264 15.9881 18.8872 14.9645 19.399C13.9409 19.9108 12.6194 20.1667 10.9999 20.1667ZM10.9999 17.4167C8.84575 15.8278 7.23777 14.2848 6.17596 12.7875C5.11415 11.2903 4.58325 9.82365 4.58325 8.38754C4.58325 7.30282 4.77804 6.35178 5.16763 5.53442C5.55721 4.71705 6.05756 4.03337 6.66867 3.48337C7.27978 2.93337 7.96728 2.52087 8.73117 2.24587C9.49506 1.97087 10.2513 1.83337 10.9999 1.83337C11.7485 1.83337 12.5048 1.97087 13.2687 2.24587C14.0326 2.52087 14.7201 2.93337 15.3312 3.48337C15.9423 4.03337 16.4426 4.71705 16.8322 5.53442C17.2218 6.35178 17.4166 7.30282 17.4166 8.38754C17.4166 9.82365 16.8857 11.2903 15.8239 12.7875C14.7621 14.2848 13.1541 15.8278 10.9999 17.4167ZM10.9999 10.0834C11.5041 10.0834 11.9357 9.90386 12.2947 9.54483C12.6537 9.1858 12.8333 8.75421 12.8333 8.25004C12.8333 7.74587 12.6537 7.31428 12.2947 6.95525C11.9357 6.59622 11.5041 6.41671 10.9999 6.41671C10.4958 6.41671 10.0642 6.59622 9.70513 6.95525C9.3461 7.31428 9.16658 7.74587 9.16658 8.25004C9.16658 8.75421 9.3461 9.1858 9.70513 9.54483C10.0642 9.90386 10.4958 10.0834 10.9999 10.0834Z" fill="#FF834A"/>
</svg>
