<svg width="22" height="22" viewBox="0 0 22 22" fill="none" xmlns="http://www.w3.org/2000/svg">
<path d="M18.7693 13.6101C18.4693 12.9401 18.1293 12.3401 17.7593 11.8401C17.2893 11.2001 16.6593 10.8701 16.0193 10.8701H13.5093C12.8693 10.8701 12.2393 11.2001 11.7693 11.8401C11.6893 11.9501 11.6093 12.0901 11.5293 12.2101C11.7293 12.5501 11.9193 12.9101 12.0993 13.3101L12.4693 14.3501C12.5293 14.6301 12.5593 14.9201 12.5593 15.2301C12.5593 15.9801 12.3493 16.7001 11.9593 17.2601C11.8993 17.3401 11.8393 17.4001 11.7693 17.4701C11.8293 17.4801 11.8893 17.5001 11.9493 17.5001H17.5793C18.4593 17.5001 19.1793 16.4801 19.1793 15.2301C19.1793 14.6101 19.0293 14.1401 18.7793 13.6201L18.7693 13.6101Z" fill="#26CF91"/>
<path d="M14.7597 9.76059C16.1797 9.76059 17.3397 8.61059 17.3397 7.18059C17.3397 5.75059 16.1897 4.60059 14.7597 4.60059C13.3297 4.60059 12.1797 5.75059 12.1797 7.18059C12.1797 8.61059 13.3297 9.76059 14.7597 9.76059Z" fill="#26CF91"/>
<path d="M11.63 14.1001L11.43 13.6101C11.32 13.3701 11.21 13.1601 11.09 12.9501C10.87 12.5401 10.65 12.1601 10.41 11.8401C9.95 11.2101 9.33 10.8701 8.67 10.8701H6.16C5.5 10.8701 4.88 11.2101 4.42 11.8401C4.05 12.3501 3.71 12.9501 3.41 13.6101C3.12 14.2101 3 14.6701 3 15.2301C3 15.8301 3.17 16.4001 3.47 16.8301C3.65 17.0801 4.03 17.5001 4.6 17.5001H10.23C10.6 17.5001 10.89 17.3201 11.09 17.1301C11.2 17.0301 11.3 16.9201 11.36 16.8301C11.66 16.4001 11.83 15.8301 11.83 15.2301C11.83 14.8401 11.77 14.4801 11.64 14.1101L11.63 14.1001Z" fill="#619EFF"/>
<path d="M7.41008 9.77035C8.83497 9.77035 9.99008 8.61525 9.99008 7.19035C9.99008 5.76546 8.83497 4.61035 7.41008 4.61035C5.98518 4.61035 4.83008 5.76546 4.83008 7.19035C4.83008 8.61525 5.98518 9.77035 7.41008 9.77035Z" fill="#619EFF"/>
</svg>
