<svg width="14" height="14" viewBox="0 0 14 14" fill="none" xmlns="http://www.w3.org/2000/svg">
    <rect width="14" height="14" rx="7" fill="#346DFF" />
    <path
        d="M4.31804 6.74193C4.13458 6.53554 3.81855 6.51695 3.61215 6.70041C3.40576 6.88386 3.38717 7.1999 3.57063 7.40629L4.31804 6.74193ZM6.01841 9.40744L5.64471 9.73962C5.73752 9.84405 5.8698 9.90487 6.00948 9.90736C6.14917 9.90986 6.28353 9.8538 6.38002 9.75276L6.01841 9.40744ZM10.4173 5.525C10.608 5.32529 10.6007 5.00879 10.401 4.81808C10.2013 4.62737 9.88477 4.63467 9.69406 4.83437L10.4173 5.525ZM3.57063 7.40629L5.64471 9.73962L6.39211 9.07526L4.31804 6.74193L3.57063 7.40629ZM6.38002 9.75276L10.4173 5.525L9.69406 4.83437L5.6568 9.06213L6.38002 9.75276Z"
        fill="#FCFCFC" />
</svg>