<svg width="40" height="40" viewBox="0 0 40 40" fill="none" xmlns="http://www.w3.org/2000/svg">
<path d="M16.4336 22.5282C19.5909 22.5282 22.1504 19.9687 22.1504 16.8114C22.1504 13.6541 19.5909 11.0946 16.4336 11.0946C13.2763 11.0946 10.7168 13.6541 10.7168 16.8114C10.7168 19.9687 13.2763 22.5282 16.4336 22.5282Z" fill="currentColor"/>
<path d="M25.5662 26.187C23.1651 24.9578 20.0495 23.9574 16.4336 23.9574C12.8177 23.9574 9.70207 24.9578 7.30101 26.187C5.87181 26.9158 5 28.3879 5 29.9886V31.1034C5 32.6755 6.28628 33.9618 7.8584 33.9618H25.0088C26.5809 33.9618 27.8672 32.6755 27.8672 31.1034V29.9886C27.8672 28.3879 26.9954 26.9158 25.5662 26.187Z" fill="currentColor"/>
<path d="M32.312 6.5926C31.7832 5.90658 30.7685 5.84942 30.1682 6.46397C29.668 6.96419 29.6108 7.76455 30.0396 8.32193C31.7118 10.4657 33.8127 15.7967 30.0396 20.6274C29.6108 21.1847 29.668 21.9851 30.1682 22.4853C30.7828 23.0999 31.7832 23.0284 32.312 22.3567C34.4558 19.5983 37.0999 12.7525 32.312 6.5926Z" fill="currentColor"/>
<path d="M28.3103 10.8659C27.8386 10.0513 26.7239 9.90835 26.0521 10.5658C25.5805 11.0374 25.5376 11.7663 25.8663 12.3523C26.2236 12.9811 26.9239 14.7676 25.852 16.6256C25.5233 17.1973 25.5805 17.9119 26.0521 18.3692C26.7239 19.0409 27.8386 18.8694 28.3103 18.0548C29.9681 15.2107 29.1392 12.3094 28.3103 10.8659Z" fill="currentColor"/>
</svg>
