<svg width="40" height="40" viewBox="0 0 40 40" fill="none" xmlns="http://www.w3.org/2000/svg">
<path d="M27.5002 19.9999C29.8002 19.9999 31.6502 18.1333 31.6502 15.8333C31.6502 13.5333 29.8002 11.6666 27.5002 11.6666C25.2002 11.6666 23.3335 13.5333 23.3335 15.8333C23.3335 18.1333 25.2002 19.9999 27.5002 19.9999ZM15.0002 18.3333C17.7668 18.3333 19.9835 16.0999 19.9835 13.3333C19.9835 10.5666 17.7668 8.33325 15.0002 8.33325C12.2335 8.33325 10.0002 10.5666 10.0002 13.3333C10.0002 16.0999 12.2335 18.3333 15.0002 18.3333ZM27.5002 23.3333C24.4502 23.3333 18.3335 24.8666 18.3335 27.9166V29.9999C18.3335 30.9166 19.0835 31.6666 20.0002 31.6666H35.0002C35.9168 31.6666 36.6668 30.9166 36.6668 29.9999V27.9166C36.6668 24.8666 30.5502 23.3333 27.5002 23.3333ZM15.0002 21.6666C11.1168 21.6666 3.3335 23.6166 3.3335 27.4999V29.9999C3.3335 30.9166 4.0835 31.6666 5.00016 31.6666H15.0002V27.9166C15.0002 26.4999 15.5502 24.0166 18.9502 22.1333C17.5002 21.8333 16.1002 21.6666 15.0002 21.6666Z" fill="currentColor"/>
</svg>
