<svg width="100%" height="100%" viewBox="0 0 20 20" fill="none" xmlns="http://www.w3.org/2000/svg">
<path d="M2.33594 7.73619C2.33594 7.05282 2.44384 6.42854 2.65964 5.86335C2.88058 5.29302 3.18887 4.79976 3.5845 4.38357C3.98014 3.96738 4.44257 3.64625 4.97179 3.42017C5.50616 3.19409 6.0842 3.08105 6.70591 3.08105C7.42011 3.08105 8.05981 3.23777 8.625 3.55119C9.19019 3.86462 9.64492 4.28081 9.98917 4.79976C10.3386 4.28081 10.7933 3.86462 11.3533 3.55119C11.9185 3.23777 12.5582 3.08105 13.2724 3.08105C13.8993 3.08105 14.4773 3.19409 15.0065 3.42017C15.5409 3.64625 16.0033 3.96738 16.3938 4.38357C16.7895 4.79976 17.0952 5.29302 17.311 5.86335C17.5319 6.42854 17.6424 7.05282 17.6424 7.73619C17.6424 8.83061 17.3521 9.91476 16.7715 10.9886C16.196 12.0574 15.3765 13.1004 14.3129 14.1177C13.2544 15.13 12.0007 16.0985 10.5518 17.0233C10.4696 17.0747 10.3745 17.121 10.2666 17.1621C10.1639 17.2083 10.0714 17.2314 9.98917 17.2314C9.9121 17.2314 9.81961 17.2083 9.71171 17.1621C9.60895 17.121 9.51646 17.0747 9.43425 17.0233C7.9853 16.0985 6.72903 15.13 5.66544 14.1177C4.60185 13.1004 3.77975 12.0574 3.19914 10.9886C2.62367 9.91476 2.33594 8.83061 2.33594 7.73619ZM3.57679 7.73619C3.57679 8.45039 3.74892 9.17487 4.09318 9.90962C4.43743 10.6392 4.905 11.356 5.49588 12.0599C6.08677 12.7638 6.75472 13.4369 7.49975 14.0792C8.24992 14.7163 9.02834 15.3021 9.83503 15.8364C9.91724 15.8981 9.96862 15.9289 9.98917 15.9289C10.0097 15.9289 10.0637 15.8981 10.151 15.8364C10.9577 15.3021 11.7336 14.7163 12.4786 14.0792C13.2288 13.4369 13.8967 12.7638 14.4825 12.0599C15.0733 11.356 15.5409 10.6392 15.8852 9.90962C16.2294 9.17487 16.4015 8.45039 16.4015 7.73619C16.4015 7.05282 16.2654 6.4568 15.9931 5.94813C15.7259 5.43431 15.3559 5.03611 14.8832 4.75351C14.4157 4.46578 13.8839 4.32191 13.2878 4.32191C12.8049 4.32191 12.3887 4.40926 12.0393 4.58396C11.695 4.75351 11.397 4.96931 11.1452 5.23136C10.8986 5.48827 10.688 5.7426 10.5133 5.99437C10.4002 6.14338 10.3077 6.24614 10.2358 6.30266C10.1639 6.35918 10.0817 6.38744 9.98917 6.38744C9.89668 6.38744 9.81191 6.36175 9.73483 6.31037C9.6629 6.25385 9.57298 6.14851 9.46508 5.99437C9.30066 5.73746 9.09514 5.48056 8.84851 5.22365C8.60188 4.96675 8.3013 4.75351 7.94677 4.58396C7.59224 4.40926 7.17348 4.32191 6.6905 4.32191C6.09447 4.32191 5.56011 4.46578 5.0874 4.75351C4.61983 5.03611 4.24989 5.43431 3.97757 5.94813C3.71039 6.4568 3.57679 7.05282 3.57679 7.73619Z" fill="currentColor"/>
</svg>
