<svg width="24" height="24" viewBox="0 0 24 24" fill="none" xmlns="http://www.w3.org/2000/svg">
<path d="M2.80313 9.28461C2.80313 8.46456 2.93261 7.71542 3.19157 7.03719C3.4567 6.35279 3.82665 5.76088 4.30141 5.26146C4.77617 4.76203 5.33109 4.37667 5.96616 4.10538C6.6074 3.83409 7.30104 3.69844 8.0471 3.69844C8.90414 3.69844 9.67177 3.8865 10.35 4.26261C11.0282 4.63872 11.5739 5.13814 11.987 5.76088C12.4063 5.13814 12.952 4.63872 13.624 4.26261C14.3022 3.8865 15.0699 3.69844 15.9269 3.69844C16.6791 3.69844 17.3728 3.83409 18.0079 4.10538C18.6491 4.37667 19.204 4.76203 19.6726 5.26146C20.1474 5.76088 20.5142 6.35279 20.7732 7.03719C21.0383 7.71542 21.1709 8.46456 21.1709 9.28461C21.1709 10.5979 20.8225 11.8989 20.1258 13.1875C19.4352 14.47 18.4518 15.7216 17.1755 16.9425C15.9053 18.1571 14.4009 19.3194 12.6622 20.4292C12.5635 20.4909 12.4494 20.5463 12.32 20.5957C12.1966 20.6512 12.0857 20.6789 11.987 20.6789C11.8945 20.6789 11.7835 20.6512 11.6541 20.5957C11.5307 20.5463 11.4198 20.4909 11.3211 20.4292C9.58237 19.3194 8.07485 18.1571 6.79854 16.9425C5.52223 15.7216 4.53571 14.47 3.83898 13.1875C3.14841 11.8989 2.80313 10.5979 2.80313 9.28461ZM4.29216 9.28461C4.29216 10.1416 4.49871 11.011 4.91182 11.8927C5.32492 12.7683 5.886 13.6284 6.59507 14.4731C7.30413 15.3178 8.10567 16.1255 8.99971 16.8962C9.89991 17.6608 10.834 18.3637 11.802 19.0049C11.9007 19.0789 11.9623 19.1159 11.987 19.1159C12.0117 19.1159 12.0764 19.0789 12.1812 19.0049C13.1493 18.3637 14.0803 17.6608 14.9743 16.8962C15.8745 16.1255 16.6761 15.3178 17.379 14.4731C18.088 13.6284 18.6491 12.7683 19.0622 11.8927C19.4753 11.011 19.6819 10.1416 19.6819 9.28461C19.6819 8.46456 19.5185 7.74934 19.1917 7.13893C18.8711 6.52235 18.4271 6.04451 17.8599 5.70539C17.2988 5.36011 16.6606 5.18747 15.9454 5.18747C15.3658 5.18747 14.8664 5.29229 14.4471 5.50192C14.034 5.70539 13.6764 5.96435 13.3743 6.27881C13.0783 6.58709 12.8256 6.8923 12.6159 7.19442C12.4803 7.37323 12.3693 7.49654 12.283 7.56436C12.1966 7.63219 12.098 7.6661 11.987 7.6661C11.876 7.6661 11.7743 7.63527 11.6818 7.57361C11.5955 7.50579 11.4876 7.37939 11.3581 7.19442C11.1608 6.88613 10.9142 6.57784 10.6182 6.26956C10.3223 5.96127 9.96156 5.70539 9.53613 5.50192C9.11069 5.29229 8.60818 5.18747 8.0286 5.18747C7.31337 5.18747 6.67214 5.36011 6.10489 5.70539C5.54381 6.04451 5.09987 6.52235 4.77309 7.13893C4.45247 7.74934 4.29216 8.46456 4.29216 9.28461Z" fill="#989BA0"/>
</svg>
