<svg width="100%" height="100%" viewBox="0 0 24 24" fill="none" xmlns="http://www.w3.org/2000/svg">
<path d="M11.877 20.4521C11.7715 20.4521 11.6426 20.417 11.4902 20.3467C11.3379 20.2764 11.1973 20.1973 11.0684 20.1094C9.42773 19.0547 8.00098 17.9473 6.78809 16.7871C5.58105 15.627 4.64648 14.4316 3.98438 13.2012C3.32812 11.9707 3 10.7314 3 9.4834C3 8.6748 3.12891 7.93652 3.38672 7.26855C3.65039 6.59473 4.01074 6.01465 4.46777 5.52832C4.93066 5.04199 5.46387 4.66699 6.06738 4.40332C6.67676 4.13379 7.33301 3.99902 8.03613 3.99902C8.90918 3.99902 9.6709 4.22168 10.3213 4.66699C10.9717 5.1123 11.4902 5.69238 11.877 6.40723C12.2754 5.68652 12.7969 5.10645 13.4414 4.66699C14.0918 4.22168 14.8535 3.99902 15.7266 3.99902C16.4297 3.99902 17.0859 4.13379 17.6953 4.40332C18.3047 4.66699 18.8379 5.04199 19.2949 5.52832C19.752 6.01465 20.1094 6.59473 20.3672 7.26855C20.6309 7.93652 20.7627 8.6748 20.7627 9.4834C20.7627 10.7314 20.4316 11.9707 19.7695 13.2012C19.1074 14.4316 18.1729 15.627 16.9658 16.7871C15.7646 17.9473 14.3438 19.0547 12.7031 20.1094C12.5684 20.1973 12.4248 20.2764 12.2725 20.3467C12.126 20.417 11.9941 20.4521 11.877 20.4521Z" fill="#D70067"/>
</svg>
