<svg width="24" height="24" viewBox="0 0 24 24" fill="none" xmlns="http://www.w3.org/2000/svg">
<path d="M2.80273 9.28441C2.80273 8.46437 2.93222 7.71523 3.19118 7.03699C3.4563 6.3526 3.82625 5.76068 4.30101 5.26126C4.77577 4.76183 5.33069 4.37647 5.96576 4.10518C6.607 3.83389 7.30065 3.69824 8.0467 3.69824C8.90374 3.69824 9.67138 3.8863 10.3496 4.26241C11.0278 4.63852 11.5735 5.13794 11.9866 5.76068C12.4059 5.13794 12.9516 4.63852 13.6236 4.26241C14.3019 3.8863 15.0695 3.69824 15.9265 3.69824C16.6787 3.69824 17.3724 3.83389 18.0075 4.10518C18.6487 4.37647 19.2036 4.76183 19.6722 5.26126C20.147 5.76068 20.5138 6.3526 20.7728 7.03699C21.0379 7.71523 21.1705 8.46437 21.1705 9.28441C21.1705 10.5977 20.8221 11.8987 20.1254 13.1873C19.4348 14.4698 18.4514 15.7214 17.1751 16.9423C15.9049 18.1569 14.4005 19.3192 12.6618 20.429C12.5631 20.4907 12.449 20.5461 12.3196 20.5955C12.1962 20.651 12.0853 20.6787 11.9866 20.6787C11.8941 20.6787 11.7831 20.651 11.6537 20.5955C11.5303 20.5461 11.4194 20.4907 11.3207 20.429C9.58197 19.3192 8.07445 18.1569 6.79814 16.9423C5.52183 15.7214 4.53531 14.4698 3.83858 13.1873C3.14802 11.8987 2.80273 10.5977 2.80273 9.28441ZM4.29176 9.28441C4.29176 10.1414 4.49832 11.0108 4.91142 11.8925C5.32453 12.7681 5.88561 13.6282 6.59467 14.4729C7.30373 15.3176 8.10528 16.1253 8.99931 16.896C9.89951 17.6606 10.8336 18.3635 11.8016 19.0047C11.9003 19.0787 11.962 19.1157 11.9866 19.1157C12.0113 19.1157 12.076 19.0787 12.1808 19.0047C13.1489 18.3635 14.0799 17.6606 14.9739 16.896C15.8741 16.1253 16.6757 15.3176 17.3786 14.4729C18.0876 13.6282 18.6487 12.7681 19.0618 11.8925C19.4749 11.0108 19.6815 10.1414 19.6815 9.28441C19.6815 8.46437 19.5181 7.74914 19.1913 7.13873C18.8707 6.52215 18.4267 6.04431 17.8595 5.70519C17.2984 5.35991 16.6603 5.18727 15.945 5.18727C15.3654 5.18727 14.866 5.29209 14.4467 5.50172C14.0336 5.70519 13.676 5.96415 13.3739 6.27861C13.078 6.58689 12.8252 6.8921 12.6155 7.19422C12.4799 7.37303 12.3689 7.49634 12.2826 7.56417C12.1962 7.63199 12.0976 7.6659 11.9866 7.6659C11.8756 7.6659 11.7739 7.63507 11.6814 7.57341C11.5951 7.50559 11.4872 7.37919 11.3577 7.19422C11.1604 6.88593 10.9138 6.57765 10.6178 6.26936C10.3219 5.96107 9.96117 5.70519 9.53573 5.50172C9.11029 5.29209 8.60779 5.18727 8.0282 5.18727C7.31298 5.18727 6.67174 5.35991 6.10449 5.70519C5.54341 6.04431 5.09948 6.52215 4.77269 7.13873C4.45207 7.74914 4.29176 8.46437 4.29176 9.28441Z" fill="#808388"/>
</svg>
