<svg width="12" height="12" viewBox="0 0 12 12" fill="none" xmlns="http://www.w3.org/2000/svg">
<path fill-rule="evenodd" clip-rule="evenodd" d="M6.00017 1.57501C4.13261 1.57501 2.61865 3.08897 2.61865 4.95653C2.61865 5.42621 2.77405 5.95562 3.0415 6.51213C3.30748 7.06556 3.67338 7.62343 4.06813 8.14376C4.79573 9.10285 5.60093 9.90796 6.00017 10.2883C6.39942 9.90796 7.20462 9.10285 7.93222 8.14376C8.32696 7.62343 8.69287 7.06556 8.95885 6.51213C9.2263 5.95562 9.3817 5.42621 9.3817 4.95653C9.3817 3.08897 7.86774 1.57501 6.00017 1.57501ZM1.86865 4.95653C1.86865 2.67476 3.7184 0.825012 6.00017 0.825012C8.28195 0.825012 10.1317 2.67476 10.1317 4.95653C10.1317 5.58151 9.92824 6.2265 9.63483 6.837C9.33995 7.45058 8.943 8.05232 8.52974 8.59706C7.7034 9.68629 6.78789 10.5787 6.41994 10.9235C6.18323 11.1452 5.81712 11.1452 5.58041 10.9235C5.21246 10.5787 4.29695 9.68629 3.47061 8.59706C3.05735 8.05232 2.6604 7.45058 2.36552 6.837C2.07211 6.2265 1.86865 5.58151 1.86865 4.95653ZM6.00033 3.97509C5.54469 3.97509 5.17533 4.34445 5.17533 4.80009C5.17533 5.25572 5.54469 5.62509 6.00033 5.62509C6.45596 5.62509 6.82533 5.25572 6.82533 4.80009C6.82533 4.34445 6.45596 3.97509 6.00033 3.97509ZM4.42533 4.80009C4.42533 3.93024 5.13048 3.22509 6.00033 3.22509C6.87018 3.22509 7.57533 3.93024 7.57533 4.80009C7.57533 5.66994 6.87018 6.37509 6.00033 6.37509C5.13048 6.37509 4.42533 5.66994 4.42533 4.80009Z" fill="#9D9DA4"/>
</svg>
