<svg width="32" height="32" viewBox="0 0 32 32" fill="none" xmlns="http://www.w3.org/2000/svg">
<g clip-path="url(#clip0_1623_316)">
<circle cx="16" cy="16" r="16" fill="#2E2E35"/>
<path d="M22.6666 23.5C22.6666 22.337 22.6666 21.7555 22.5231 21.2824C22.1999 20.217 21.3662 19.3834 20.3009 19.0602C19.8277 18.9167 19.2462 18.9167 18.0832 18.9167H13.9166C12.7536 18.9167 12.1721 18.9167 11.699 19.0602C10.6336 19.3834 9.79995 20.217 9.47678 21.2824C9.33325 21.7555 9.33325 22.337 9.33325 23.5M19.7499 12.25C19.7499 14.3211 18.071 16 15.9999 16C13.9289 16 12.2499 14.3211 12.2499 12.25C12.2499 10.1789 13.9289 8.5 15.9999 8.5C18.071 8.5 19.7499 10.1789 19.7499 12.25Z" stroke="#515159" stroke-width="1.5" stroke-linecap="round" stroke-linejoin="round"/>
</g>
<defs>
<clipPath id="clip0_1623_316">
<rect width="32" height="32" fill="white"/>
</clipPath>
</defs>
</svg>
