<svg width="24" height="24" viewBox="0 0 24 24" fill="none" xmlns="http://www.w3.org/2000/svg">
<path fill-rule="evenodd" clip-rule="evenodd" d="M2.25 4.5C2.25 3.25736 3.25736 2.25 4.5 2.25H19.5C20.7427 2.25 21.75 3.25737 21.75 4.5V19.5C21.75 20.7427 20.7427 21.75 19.5 21.75H4.5C3.25737 21.75 2.25 20.7427 2.25 19.5V4.5ZM4.5 3.75C4.08579 3.75 3.75 4.08579 3.75 4.5V19.5C3.75 19.9142 4.08578 20.25 4.5 20.25H19.5C19.9142 20.25 20.25 19.9142 20.25 19.5V4.5C20.25 4.08578 19.9142 3.75 19.5 3.75H4.5Z" fill="#646464"/>
<path fill-rule="evenodd" clip-rule="evenodd" d="M5.75 9C5.75 7.20509 7.20509 5.75 9 5.75C10.7949 5.75 12.25 7.20509 12.25 9C12.25 10.7949 10.7949 12.25 9 12.25C7.20509 12.25 5.75 10.7949 5.75 9ZM9 7.25C8.03351 7.25 7.25 8.03351 7.25 9C7.25 9.96649 8.03351 10.75 9 10.75C9.96649 10.75 10.75 9.96649 10.75 9C10.75 8.03351 9.96649 7.25 9 7.25Z" fill="#646464"/>
<path fill-rule="evenodd" clip-rule="evenodd" d="M14.4959 13.5584C14.4959 13.5584 14.4959 13.5584 14.4959 13.5584L9.49655 20.2498H19.0836C19.2856 20.2498 19.4042 20.0226 19.2887 19.8568C19.2887 19.8568 19.2886 19.8568 19.2886 19.8568L14.9013 13.565C14.8038 13.4252 14.5979 13.4218 14.4959 13.5584ZM13.2942 12.6606C14.0085 11.7046 15.4491 11.7281 16.1316 12.707L16.1317 12.707L20.5191 18.9988L20.5191 18.9989C21.328 20.159 20.4979 21.7498 19.0836 21.7498H8C7.71617 21.7498 7.45666 21.5896 7.32949 21.3358C7.20233 21.0821 7.2293 20.7783 7.39918 20.5509L13.2942 12.6606L13.2942 12.6606Z" fill="#646464"/>
</svg>
