<svg width="14" height="14" viewBox="0 0 14 14" fill="none" xmlns="http://www.w3.org/2000/svg">
<circle cx="7" cy="7" r="6.5" stroke="#FCFCFC"/>
<path d="M6.83902 10.84C7.19902 10.84 7.38902 10.59 7.38902 10.27C7.38902 9.97 7.19902 9.72 6.83902 9.72C6.47902 9.72 6.27902 9.97 6.27902 10.27C6.27902 10.59 6.47902 10.84 6.83902 10.84ZM4.74902 4.79L5.58902 5.11C5.84902 4.42 6.26902 4.06 7.00902 4.06C7.82902 4.06 8.38902 4.55 8.34902 5.34C8.31902 5.78 8.13902 6.14 7.38902 6.7C6.65902 7.23 6.37902 7.83 6.38902 8.84L7.28902 8.82C7.27902 8.07 7.40902 7.81 7.92902 7.42C8.86902 6.72 9.20902 6.06 9.24902 5.38C9.30902 4.13 8.26902 3.16 7.00902 3.16C5.90902 3.16 5.10902 3.83 4.74902 4.79Z" fill="#FCFCFC"/>
</svg>
