<svg width="20" height="20" viewBox="0 0 20 20" fill="none" xmlns="http://www.w3.org/2000/svg">
<mask id="path-1-inside-1_933_20565" fill="white">
<path fill-rule="evenodd" clip-rule="evenodd" d="M3.81321 4.16992C2.85926 4.16992 2.08594 4.94325 2.08594 5.8972V12.5184C2.08594 13.4724 2.85926 14.2457 3.81321 14.2457H12.2005C12.643 14.2457 13.0463 14.4992 13.2382 14.898L13.754 15.97C13.8377 16.144 14.0853 16.144 14.169 15.97L14.6848 14.8979C14.8767 14.4992 15.28 14.2457 15.7225 14.2457H16.192C17.1459 14.2457 17.9193 13.4724 17.9193 12.5184V5.89719C17.9193 4.94325 17.1459 4.16992 16.192 4.16992H3.81321Z"/>
</mask>
<path d="M13.754 15.97L14.5322 15.5956L14.5322 15.5956L13.754 15.97ZM14.169 15.97L14.9473 16.3445L14.9473 16.3445L14.169 15.97ZM14.6848 14.8979L15.4631 15.2724L14.6848 14.8979ZM2.94957 5.8972C2.94957 5.42022 3.33624 5.03356 3.81321 5.03356V3.30629C2.38229 3.30629 1.2223 4.46628 1.2223 5.8972H2.94957ZM2.94957 12.5184V5.8972H1.2223V12.5184H2.94957ZM3.81321 13.382C3.33624 13.382 2.94957 12.9954 2.94957 12.5184H1.2223C1.2223 13.9493 2.38229 15.1093 3.81321 15.1093V13.382ZM12.2005 13.382H3.81321V15.1093H12.2005V13.382ZM14.5322 15.5956L14.0164 14.5235L12.4599 15.2724L12.9757 16.3445L14.5322 15.5956ZM13.3908 15.5956C13.6209 15.1173 14.3021 15.1172 14.5322 15.5956L12.9757 16.3445C13.3732 17.1707 14.5498 17.1707 14.9473 16.3445L13.3908 15.5956ZM13.9066 14.5235L13.3908 15.5956L14.9473 16.3445L15.4631 15.2724L13.9066 14.5235ZM16.192 13.382H15.7225V15.1093H16.192V13.382ZM17.0556 12.5184C17.0556 12.9954 16.669 13.382 16.192 13.382V15.1093C17.6229 15.1093 18.7829 13.9493 18.7829 12.5184H17.0556ZM17.0556 5.89719V12.5184H18.7829V5.89719H17.0556ZM16.192 5.03356C16.669 5.03356 17.0556 5.42022 17.0556 5.89719H18.7829C18.7829 4.46628 17.6229 3.30629 16.192 3.30629V5.03356ZM3.81321 5.03356H16.192V3.30629H3.81321V5.03356ZM15.4631 15.2724C15.511 15.1727 15.6119 15.1093 15.7225 15.1093V13.382C14.9482 13.382 14.2423 13.8257 13.9066 14.5235L15.4631 15.2724ZM12.2005 15.1093C12.3111 15.1093 12.412 15.1727 12.4599 15.2724L14.0164 14.5235C13.6807 13.8257 12.9748 13.382 12.2005 13.382V15.1093Z" fill="#989BA0" mask="url(#path-1-inside-1_933_20565)"/>
<circle cx="6.76657" cy="9.20603" r="0.719697" fill="#989BA0"/>
<circle cx="10.0049" cy="9.20603" r="0.719697" fill="#989BA0"/>
<circle cx="13.247" cy="9.20603" r="0.719697" fill="#989BA0"/>
</svg>
