
<svg width="20" height="20" viewBox="0 0 20 20" fill="none" xmlns="http://www.w3.org/2000/svg">
<path fill-rule="evenodd" clip-rule="evenodd" d="M13.5219 2H6.47815H6.47814C5.79662 2 5.25461 1.99999 4.81731 2.03532C4.36951 2.0715 3.98768 2.14718 3.63805 2.32333C3.07357 2.60773 2.61462 3.06155 2.327 3.61972C2.14886 3.96544 2.07233 4.34301 2.03574 4.78581C2.00002 5.21822 2.00002 5.75417 2.00002 6.42808L2.00002 11.5586L2.00001 11.6408C1.99986 12.3281 1.99976 12.7722 2.10225 13.1504C2.37965 14.1742 3.18829 14.9738 4.22357 15.2481C4.52363 15.3276 4.8647 15.3446 5.33336 15.3482L5.33336 16.8002C5.33334 17.0017 5.33333 17.1855 5.34679 17.332C5.35987 17.4745 5.39158 17.6831 5.53361 17.8591C5.70777 18.0748 5.97185 18.2003 6.25101 18.2C6.47869 18.1998 6.66323 18.0939 6.78392 18.015C6.90802 17.9339 7.05316 17.8191 7.21224 17.6932L7.21228 17.6932L9.21672 16.1075C9.63844 15.7739 9.79664 15.6518 9.96707 15.5657C10.1275 15.4846 10.2984 15.4253 10.4749 15.3895C10.6624 15.3515 10.8631 15.3491 11.4031 15.3491H13.5219H13.522C14.2035 15.3491 14.7455 15.3492 15.1827 15.3138C15.6305 15.2776 16.0124 15.202 16.362 15.0258C16.9265 14.7414 17.3854 14.2876 17.673 13.7294C17.8512 13.3837 17.9277 13.0061 17.9643 12.5633C18 12.1309 18 11.595 18 10.9211V10.9211V6.42807V6.42802C18 5.75414 18 5.2182 17.9643 4.78581C17.9277 4.34301 17.8512 3.96544 17.673 3.61972C17.3854 3.06155 16.9265 2.60773 16.362 2.32333C16.0124 2.14718 15.6305 2.0715 15.1827 2.03532C14.7454 1.99999 14.2034 2 13.5219 2H13.5219ZM13.75 7.98848C13.1977 7.98848 12.75 8.45886 12.75 9.03911C12.75 9.61936 13.1977 10.0897 13.75 10.0897C14.3023 10.0897 14.75 9.61936 14.75 9.03911C14.75 8.45886 14.3023 7.98848 13.75 7.98848ZM10 7.98848C9.44771 7.98848 9 8.45887 9 9.03911C9 9.61936 9.44772 10.0897 10 10.0897C10.5523 10.0897 11 9.61936 11 9.03911C11 8.45886 10.5523 7.98848 10 7.98848ZM6.25 7.98848C5.69771 7.98848 5.25 8.45887 5.25 9.03911C5.25 9.61936 5.69772 10.0897 6.25 10.0897C6.80229 10.0897 7.25 9.61936 7.25 9.03911C7.25 8.45887 6.80229 7.98848 6.25 7.98848Z" fill="#808087"/>
</svg>
