<svg width="16" height="16" viewBox="0 0 16 16" fill="none" xmlns="http://www.w3.org/2000/svg">
<g clip-path="url(#clip0_272_5678)">
<path d="M14.6208 9.37943C14.6208 10.6889 14.2325 11.9689 13.505 13.0577C12.7775 14.1465 11.7435 14.995 10.5337 15.4962C9.32394 15.9973 7.99274 16.1284 6.70845 15.8729C5.42417 15.6174 4.24447 14.9869 3.31855 14.061C2.39263 13.135 1.76207 11.9554 1.50661 10.6711C1.25115 9.38678 1.38226 8.05558 1.88337 6.8458C2.38447 5.63603 3.23306 4.60202 4.32183 3.87453C5.4106 3.14704 6.69064 2.75874 8.00009 2.75874L11.4208 2.75874L9.43457 0.772536L10.207 0.000122456L13.5173 3.31047L10.207 6.62081L9.43457 5.8484L11.4208 3.86219L8.00009 3.86219C6.90888 3.86219 5.84218 4.18577 4.93487 4.79201C4.02757 5.39826 3.32041 6.25993 2.90282 7.26807C2.48523 8.27622 2.37597 9.38555 2.58886 10.4558C2.80174 11.526 3.32721 12.5091 4.09881 13.2807C4.87041 14.0523 5.85349 14.5778 6.92373 14.7907C7.99397 15.0035 9.1033 14.8943 10.1114 14.4767C11.1196 14.0591 11.9813 13.352 12.5875 12.4446C13.1937 11.5373 13.5173 10.4706 13.5173 9.37943L14.6208 9.37943Z" fill="#FCFCFC"/>
</g>
<defs>
<clipPath id="clip0_272_5678">
<rect width="16" height="16" fill="white" transform="matrix(-1 0 0 1 16 0)"/>
</clipPath>
</defs>
</svg>
