<svg width="25" height="25" viewBox="0 0 25 25" fill="none" xmlns="http://www.w3.org/2000/svg">
    <g clip-path="url(#clip0_933_12783)">
        <path
            d="M24.5018 1.29927C24.0372 0.83468 23.322 0.776605 22.7932 1.11894C22.7809 1.122 22.7718 1.122 22.7596 1.12811L2.70555 7.76998C1.84055 8.0573 1.19256 8.75725 0.97555 9.64059C0.758535 10.527 1.00612 11.447 1.63576 12.0981C1.64188 12.1042 1.64493 12.1072 1.65105 12.1133C1.69078 12.1531 1.73357 12.1897 1.77942 12.2234L8.52522 17.2697L13.5716 24.0155C13.6052 24.0614 13.6419 24.1042 13.6816 24.1439C13.6877 24.15 13.6908 24.1531 13.6969 24.1592C14.351 24.7919 15.271 25.0395 16.1574 24.8225C17.0438 24.6054 17.7438 23.9575 18.028 23.0924L24.673 3.04151C24.673 3.04151 24.6791 3.01705 24.6821 3.00788C25.0245 2.4791 24.9664 1.76387 24.5018 1.29927ZM2.72084 11.0191C2.46714 10.744 2.37239 10.3742 2.46103 10.0074C2.55273 9.63142 2.81865 9.3441 3.18849 9.22184L21.5981 3.12098L8.99898 15.717L2.71778 11.0191H2.72084ZM16.5792 22.6095C16.457 22.9794 16.1696 23.2422 15.7937 23.337C15.4269 23.4287 15.0601 23.3339 14.782 23.0772L10.0841 16.796L22.6801 4.19994L16.5792 22.6095Z"
            fill="#fcfcfc" />
    </g>
    <defs>
        <clipPath id="clip0_933_12783">
            <rect width="24" height="24" fill="white" transform="translate(0.898438 0.899902)" />
        </clipPath>
    </defs>
</svg>