<svg width="24" height="24" viewBox="0 0 24 24" fill="none" xmlns="http://www.w3.org/2000/svg">
<path d="M11.434 2.43451C11.7464 2.12209 12.253 2.12209 12.5654 2.43451L16.5654 6.43451C16.8778 6.74693 16.8778 7.25346 16.5654 7.56588C16.253 7.8783 15.7464 7.8783 15.434 7.56588L12.7997 4.93157V14.0002C12.7997 14.442 12.4415 14.8002 11.9997 14.8002C11.5579 14.8002 11.1997 14.442 11.1997 14.0002V4.93157L8.56539 7.56588C8.25297 7.8783 7.74644 7.8783 7.43402 7.56588C7.1216 7.25346 7.1216 6.74693 7.43402 6.43451L11.434 2.43451Z" fill="#FCFCFC"/>
<path d="M4.99971 10.8002C4.89153 10.8002 4.79971 10.892 4.79971 11.0002V20.0002C4.79971 20.1084 4.89153 20.2002 4.99971 20.2002H18.9997C19.1079 20.2002 19.1997 20.1084 19.1997 20.0002V11.0002C19.1997 10.892 19.1079 10.8002 18.9997 10.8002H15.9997C15.5579 10.8002 15.1997 10.442 15.1997 10.0002C15.1997 9.55837 15.5579 9.2002 15.9997 9.2002H18.9997C19.9915 9.2002 20.7997 10.0084 20.7997 11.0002V20.0002C20.7997 20.992 19.9915 21.8002 18.9997 21.8002H4.99971C4.00788 21.8002 3.19971 20.992 3.19971 20.0002V11.0002C3.19971 10.0084 4.00788 9.2002 4.99971 9.2002H7.99971C8.44153 9.2002 8.79971 9.55837 8.79971 10.0002C8.79971 10.442 8.44153 10.8002 7.99971 10.8002H4.99971Z" fill="#FCFCFC"/>
</svg>
