<svg width="16" height="16" viewBox="0 0 16 16" fill="none" xmlns="http://www.w3.org/2000/svg">
<path fill-rule="evenodd" clip-rule="evenodd" d="M6.73172 1.4556C6.89992 1.07715 7.27522 0.833252 7.68936 0.833252C8.8734 0.833252 9.83325 1.79311 9.83325 2.97714V5.33325C9.83325 5.4253 9.90787 5.49992 9.99992 5.49992H12.3354C13.8676 5.49992 15.0393 6.86566 14.8063 8.38006L14.0883 13.0467C13.9007 14.2663 12.8513 15.1666 11.6174 15.1666H4.39518L4.39518 6.7128L6.73172 1.4556ZM3.39518 6.83325H2.66659C1.65406 6.83325 0.833252 7.65406 0.833252 8.66658V13.3333C0.833252 14.3458 1.65406 15.1666 2.66659 15.1666H3.39518L3.39518 6.83325Z" fill="white"/>
</svg>
