<svg width="32" height="32" viewBox="0 0 32 32" fill="none" xmlns="http://www.w3.org/2000/svg">
<path fill-rule="evenodd" clip-rule="evenodd" d="M8.45761 21.9083C8.00634 22.3596 8.00634 23.0913 8.45761 23.5425C8.90888 23.9938 9.64054 23.9938 10.0918 23.5425L16.0001 17.6343L21.9083 23.5426C22.3596 23.9938 23.0913 23.9938 23.5425 23.5426C23.9938 23.0913 23.9938 22.3596 23.5425 21.9084L17.6343 16.0001L23.5426 10.0918C23.9938 9.64052 23.9938 8.90887 23.5426 8.4576C23.0913 8.00632 22.3596 8.00632 21.9084 8.45759L16.0001 14.3659L10.0918 8.45762C9.64052 8.00635 8.90887 8.00635 8.4576 8.45762C8.00632 8.90889 8.00632 9.64055 8.45759 10.0918L14.3659 16.0001L8.45761 21.9083Z" fill="#989BA0"/>
</svg>
